<?xml version="1.0" encoding="UTF-8" standalone="no"?>
<!DOCTYPE svg PUBLIC "-//W3C//DTD SVG 1.1//EN" "http://www.w3.org/Graphics/SVG/1.1/DTD/svg11.dtd">
<svg width="100%" height="100%" viewBox="0 0 1425 239" version="1.1" xmlns="http://www.w3.org/2000/svg" xmlns:xlink="http://www.w3.org/1999/xlink" xml:space="preserve" xmlns:serif="http://www.serif.com/" style="fill-rule:evenodd;clip-rule:evenodd;stroke-linecap:round;stroke-linejoin:round;stroke-miterlimit:1;">
    <rect x="13.5" y="13.5" width="1397.27" height="211.557" style="fill:rgb(255,226,0);"/>
    <rect x="13.5" y="13.5" width="1397.27" height="211.557" style="fill:none;stroke:black;stroke-width:25.33px;"/>
    <rect x="13.5" y="13.5" width="1397.27" height="211.557" style="fill:none;stroke:rgb(255,0,23);stroke-width:19px;"/>
    <g>
        <path d="M1330.66,77.213c2.971,0.22 5.171,0.33 6.602,0.33l5.281,0c0.44,7.537 0.66,15.789 0.66,24.755l-0,7.592c-0,0.44 0.22,0.66 0.66,0.66l11.552,0c1.871,0 4.841,0.11 8.912,0.33c0,-0.22 0.11,-0.33 0.33,-0.33l-1.32,-31.356l0.66,-0.33l5.941,-0c2.201,-0 5.502,-0.11 9.902,-0.33c0,4.786 0.11,10.287 0.33,16.503c-0.22,30.201 -0.33,55.726 -0.33,76.576c0,0.44 -0.77,0.66 -2.31,0.66l-13.863,-0c0,-6.106 0.22,-20.079 0.66,-41.919c0,-0.385 -0.22,-0.605 -0.66,-0.66l-11.222,0c-1.871,0 -4.841,-0.11 -8.912,-0.33c0,0.22 -0.11,0.33 -0.33,0.33c1.1,18.264 1.65,28.386 1.65,30.366c-0.22,4.401 -0.33,8.362 -0.33,11.883l-14.193,-0c-0.22,-4.731 -0.33,-8.252 -0.33,-10.562l0,-6.272c0,-11.827 0.44,-27.67 1.321,-47.529c-0,-4.016 -0.221,-14.138 -0.661,-30.367Z" style="fill:rgb(255,0,0);"/>
        <path d="M1267.97,81.778l50.83,-0c0.22,3.631 0.33,6.381 0.33,8.251l0,3.631l-2.31,0.33l-15.843,0l-0.66,0.33c0.44,10.838 0.66,18.099 0.66,21.785c-0.66,32.621 -0.99,52.646 -0.99,60.072l-13.203,-0.66l-0.33,-0c-0,-4.951 -0.33,-20.354 -0.99,-46.21c-0,-8.746 0.44,-20.299 1.32,-34.657c-0.22,0 -0.33,-0.11 -0.33,-0.33c-3.796,0.44 -7.867,0.66 -12.213,0.66l-5.611,0c-0.44,-8.141 -0.66,-12.542 -0.66,-13.202Z" style="fill:rgb(255,0,0);"/>
        <path d="M1265.95,81.742l50.831,-0c0.22,3.63 0.33,6.381 0.33,8.251l-0,3.631l-2.311,0.33l-15.843,0l-0.66,0.33c0.44,10.837 0.66,18.099 0.66,21.785c-0.66,32.621 -0.99,52.645 -0.99,60.072l-13.203,-0.66l-0.33,-0c-0,-4.951 -0.33,-20.354 -0.99,-46.21c-0,-8.746 0.44,-20.299 1.32,-34.657c-0.22,0 -0.33,-0.11 -0.33,-0.33c-3.796,0.44 -7.867,0.66 -12.213,0.66l-5.611,0c-0.44,-8.141 -0.66,-12.542 -0.66,-13.202Z" style="fill:rgb(255,0,0);"/>
        <path d="M1211.51,79.524c3.631,0.22 6.381,0.33 8.252,0.33l0.66,0.33c-1.54,9.462 -2.311,18.154 -2.311,26.075c0.661,15.403 0.991,30.146 0.991,44.229c-0,4.896 3.3,7.867 9.902,8.912l0.33,0c2.97,0 5.281,-1.87 6.931,-5.611c1.981,-0 2.971,-14.193 2.971,-42.579l-0,-28.055l1.65,-0.331l12.543,0c-0.661,10.563 -0.991,19.695 -0.991,27.396c0.661,16.613 0.991,26.515 0.991,29.706c-0,13.313 -1.981,23.215 -5.942,29.706c-1.815,3.301 -6.766,4.951 -14.853,4.951c-8.031,0 -14.413,-4.181 -19.144,-12.542c-1.76,-0 -2.64,-14.633 -2.64,-43.899c-0,-8.252 0.22,-21.125 0.66,-38.618Z" style="fill:rgb(255,0,0);"/>
        <path d="M1145.24,133.867c0,-7.146 1.55,-15.826 4.65,-26.041c4.34,-17.784 12.09,-26.675 23.25,-26.675c1.602,-0 3.359,0.317 5.27,0.952c11.625,6.14 17.619,21.489 17.98,46.047l0,2.541c0,12.385 -1.86,23.288 -5.58,32.709c-3.41,6.563 -9.403,9.845 -17.98,9.845l-1.86,-0c-3.771,-0 -7.801,-1.059 -12.09,-3.176c-9.093,-6.669 -13.64,-17.678 -13.64,-33.027l0,-3.175Zm25.42,-39.696c-0.361,0.212 -0.775,0.317 -1.24,0.317c-9.506,6.775 -14.26,18.843 -14.26,36.203c0,7.092 0.827,13.444 2.48,19.054c3.875,6.351 8.422,9.527 13.64,9.527l0.93,0c1.654,0 3.617,-0.529 5.89,-1.588c4.34,-3.493 6.51,-12.385 6.51,-26.675c0,-0.371 -0.31,-4.605 -0.93,-12.703c-1.653,-16.09 -5.993,-24.135 -13.02,-24.135Z" style="fill:rgb(255,0,0);"/>
        <path d="M1083.82,73.248l1.549,-0.343l11.151,0c1.135,3.884 1.858,5.826 2.168,5.826c4.182,14.165 7.795,22.504 10.841,25.017l0.31,-0l8.983,-20.562c2.426,-6.625 3.768,-9.938 4.026,-9.938l9.602,-0l0,98.354c-4.13,-0.457 -7.846,-0.686 -11.15,-0.686l-0,-8.224c0.413,-26.388 0.619,-40.553 0.619,-42.495c0,-1.028 0.103,-2.513 0.31,-4.455c-0.878,-5.94 -1.601,-8.91 -2.168,-8.91l-1.859,0c-3.769,8.853 -6.866,14.679 -9.292,17.478c-2.478,-5.027 -5.782,-10.852 -9.912,-17.478l-0.62,0c-1.032,0.514 -1.549,1.657 -1.549,3.427l0,60.657l-0.309,0.686l-13.939,-0.686c0.413,-29.414 1.033,-49.748 1.859,-61c-0,-10.223 -0.207,-22.446 -0.62,-36.668Z" style="fill:rgb(255,0,0);"/>
        <path d="M1017.43,77.213c2.971,0.22 5.172,0.33 6.602,0.33l5.281,0c0.44,7.537 0.66,15.789 0.66,24.755l0,7.592c0,0.44 0.22,0.66 0.66,0.66l11.553,0c1.87,0 4.841,0.11 8.911,0.33c0,-0.22 0.11,-0.33 0.33,-0.33l-1.32,-31.356l0.66,-0.33l5.941,-0c2.201,-0 5.502,-0.11 9.903,-0.33c-0,4.786 0.11,10.287 0.33,16.503c-0.22,30.201 -0.33,55.726 -0.33,76.576c-0,0.44 -0.771,0.66 -2.311,0.66l-13.863,-0c0,-6.106 0.22,-20.079 0.66,-41.919c0,-0.385 -0.22,-0.605 -0.66,-0.66l-11.222,0c-1.87,0 -4.841,-0.11 -8.912,-0.33c0,0.22 -0.11,0.33 -0.33,0.33c1.1,18.264 1.65,28.386 1.65,30.366c-0.22,4.401 -0.33,8.362 -0.33,11.883l-14.193,-0c-0.22,-4.731 -0.33,-8.252 -0.33,-10.562l0,-6.272c0,-11.827 0.44,-27.67 1.321,-47.529c-0,-4.016 -0.22,-14.138 -0.661,-30.367Z" style="fill:rgb(255,0,0);"/>
        <path d="M956.276,97.861c-0,-4.29 1.87,-9.351 5.611,-15.183c6.601,-7.041 13.753,-10.562 21.454,-10.562c2.971,0 5.611,0.66 7.922,1.981c5.061,3.905 7.591,9.407 7.591,16.503c0,0.935 -0.33,3.906 -0.99,8.912l0,0.33l-5.941,-0c-2.861,-8.802 -6.381,-13.203 -10.562,-13.203l-2.311,0.33c-5.941,2.036 -8.911,5.666 -8.911,10.892l-0,0.661c-0,3.905 5.281,10.177 15.843,18.813c10.562,6.877 15.843,15.679 15.843,26.406l-0,2.97c-0,2.146 -0.66,5.227 -1.98,9.242c-2.696,9.022 -9.517,13.533 -20.465,13.533l-2.64,0c-5.171,0 -9.902,-2.64 -14.193,-7.922c-2.641,-1.98 -3.961,-8.691 -3.961,-20.134l0,-1.65c3.631,-0.22 6.381,-0.33 8.252,-0.33l1.98,-0l0,0.99c1.926,9.462 5.336,14.193 10.232,14.193c1.211,-0.22 2.091,-0.33 2.641,-0.33c6.821,-2.475 10.232,-6.986 10.232,-13.533c-0,-7.316 -6.711,-13.588 -20.134,-18.814c-10.342,-7.206 -15.513,-14.358 -15.513,-21.454l-0,-2.641Z" style="fill:rgb(255,0,0);"/>
        <path d="M898.714,72.968c7.594,0.229 12.905,0.343 15.932,0.343l6.373,13.7c5.098,24.088 12.851,52.287 23.26,84.596c-7.7,0.228 -13.223,0.343 -16.569,0.343l-3.186,-0c-1.912,-13.244 -5.205,-24.318 -9.878,-33.223c-10.196,-0.456 -15.932,-0.685 -17.207,-0.685c-0.743,0 -1.168,2.398 -1.274,7.193c-2.124,9.704 -3.824,18.495 -5.098,26.372c-6.479,0.228 -11.259,0.343 -14.339,0.343l-0.319,-0c1.487,-4.51 3.399,-15.127 5.736,-31.853c5.735,-20.721 11.258,-43.097 16.569,-67.129Zm7.647,18.837c-2.867,5.138 -5.841,14.499 -8.922,28.085c5.152,1.142 9.082,1.713 11.79,1.713c4.249,-0.685 6.373,-2.398 6.373,-5.138l-0,-2.055c-0,-7.991 -3.08,-15.526 -9.241,-22.605Z" style="fill:rgb(255,0,0);"/>
        <path d="M795.953,84.475l1.981,-2.311c10.287,-6.601 19.419,-9.902 27.395,-9.902c3.301,0.22 5.941,0.66 7.922,1.321c9.902,4.18 14.853,12.762 14.853,25.745c-0,6.766 -4.951,15.458 -14.853,26.075c4.786,6.767 8.087,11.718 9.902,14.853c4.731,10.287 9.242,19.199 13.533,26.736l-0,0.33l-19.804,-0c-5.722,-11.223 -13.203,-23.545 -22.445,-36.968c-1.87,-4.181 -3.851,-6.271 -5.941,-6.271c-0,0.22 -0.11,0.33 -0.33,0.33c-0.22,11.992 -0.33,21.564 -0.33,28.716l-0,5.611c-0,3.246 0.11,7.647 0.33,13.203c-6.327,-0.22 -10.397,-0.33 -12.213,-0.33l-0.33,-0c0.44,-21.235 0.99,-40.159 1.651,-56.772c-0.661,-7.316 -1.101,-17.439 -1.321,-30.366Zm27.396,2.64l-1.65,0c-8.582,2.916 -12.873,7.537 -12.873,13.863c-0,0.77 0.11,1.761 0.33,2.971c2.035,4.401 5.996,6.601 11.882,6.601l0.33,0c5.777,0 9.187,-4.401 10.233,-13.203l-0,-1.98c-0,-1.54 -0.22,-2.751 -0.661,-3.631c-1.43,-3.08 -3.96,-4.621 -7.591,-4.621Z" style="fill:rgb(255,0,0);"/>
        <path d="M728.559,56.838l62.035,-0c0.268,4.431 0.403,7.788 0.403,10.07l-0,4.431l-2.82,0.403l-19.336,0l-0.805,0.403c0.537,13.226 0.805,22.088 0.805,26.587c-0.805,39.812 -1.208,64.25 -1.208,73.314l-16.113,-0.806l-0.403,0c-0,-6.042 -0.403,-24.841 -1.209,-56.395c0,-10.675 0.537,-24.774 1.612,-42.297c-0.269,-0 -0.403,-0.134 -0.403,-0.403c-4.633,0.537 -9.601,0.806 -14.905,0.806l-6.848,-0c-0.537,-9.937 -0.805,-15.308 -0.805,-16.113Z" style="fill:rgb(255,0,0);"/>
        <path d="M626.292,128.32c-0,-10.617 0.55,-18.869 1.65,-24.755c3.851,-18.044 11.003,-27.065 21.455,-27.065l2.64,-0c1.486,-0 2.806,0.11 3.961,0.33c11.882,2.75 17.824,8.141 17.824,16.173l-0,1.65c-0,3.081 -0.22,5.831 -0.66,8.252c-4.071,-0.22 -7.042,-0.33 -8.912,-0.33l-0,-1.32c-1.706,-8.142 -5.116,-12.213 -10.232,-12.213c-3.631,0 -7.152,2.531 -10.563,7.592c-4.62,10.397 -6.931,21.069 -6.931,32.016c0.22,5.666 0.55,9.297 0.99,10.892c2.586,12.763 7.097,19.144 13.533,19.144l0.99,0c7.427,0 12.048,-4.951 13.863,-14.853c0,-2.035 -0.11,-4.896 -0.33,-8.582c-0,-0.385 -0.22,-0.605 -0.66,-0.66l-7.922,0c0,-2.475 -0.11,-5.666 -0.33,-9.572l0,-0.33c3.631,0 9.572,-0.11 17.824,-0.33l-0,14.853c-0,6.217 -0.33,11.718 -0.99,16.504c-4.896,9.902 -12.268,14.853 -22.115,14.853c-7.151,-0 -12.542,-1.871 -16.173,-5.611c-5.941,-3.301 -8.912,-15.294 -8.912,-35.978l-0,-0.66Z" style="fill:rgb(255,0,0);"/>
        <path d="M599.418,73.614c4.063,0 9.029,-0.226 14.898,-0.677c-0,0.564 0.113,1.467 0.338,2.709c0,0.846 -0.225,4.006 -0.677,9.48c0.452,14.446 0.903,42.774 1.355,84.984l-0,0.339c-1.298,-0 -4.346,-0.226 -9.142,-0.678c-2.709,0 -5.756,-3.611 -9.142,-10.834c-4.514,-12.358 -11.173,-27.482 -19.976,-45.37c-0.339,0.226 -1.016,0.338 -2.032,0.338c-0.62,4.176 -1.41,22.911 -2.37,56.205c-6.207,-0.226 -10.496,-0.339 -12.866,-0.339c-0.226,0 -0.451,-6.433 -0.677,-19.299c0.226,-9.649 0.564,-17.888 1.016,-24.716c-0,-14.277 -0.452,-31.771 -1.355,-52.481c4.853,0.226 8.465,0.339 10.835,0.339l0.677,0c6.377,13.826 10.891,24.322 13.543,31.488c7.901,19.92 12.641,30.981 14.221,33.181l1.354,0l1.016,-0.677c-0.226,-28.497 -0.564,-49.715 -1.016,-63.653l0,-0.339Z" style="fill:rgb(255,0,0);"/>
        <path d="M531.53,73.13l11.222,0c0.66,12.433 0.99,20.244 0.99,23.435l-1.32,40.268l-0,14.193c-0,3.466 0.11,9.187 0.33,17.164l-12.873,-0c0.881,-10.783 1.541,-30.147 1.981,-58.092c-0.22,-17.494 -0.33,-29.816 -0.33,-36.968Z" style="fill:rgb(255,0,0);"/>
        <path d="M475.402,56.782c0.264,-0 0.661,-0.133 1.189,-0.397c-0.793,12.625 -1.189,22.011 -1.189,28.158l-0,9.121c-0,1.322 -0.132,3.305 -0.397,5.949c1.256,0.793 2.314,1.19 3.173,1.19c1.057,-2.446 1.983,-4.032 2.776,-4.759c5.023,-12.162 10.576,-23.928 16.657,-35.297c-0,-0.264 0.132,-0.396 0.396,-0.396c4.429,3.9 9.849,7.998 16.261,12.294c-5.817,9.452 -13.485,23.729 -23.003,42.832c0.199,0.595 0.992,1.917 2.38,3.966c4.164,15.599 10.113,31.727 17.846,48.384l-15.07,-0l-7.932,-15.071c-6.61,-17.516 -10.179,-26.373 -10.708,-26.571l-1.983,-0c-1.057,-0 -1.586,7.271 -1.586,21.812l-0,24.192c-2.974,0 -7.469,0.132 -13.484,0.397l-0,-34.9l1.983,-61.472l-0,-1.586l0.396,-2.379c-0.264,-0.463 -0.396,-1.124 -0.396,-1.983l-0,-12.691c5.354,-0.529 9.584,-0.793 12.691,-0.793Z" style="fill:rgb(255,0,0);"/>
        <path d="M348.576,77.481c7.481,-0.44 12.872,-0.66 16.173,-0.66l5.611,0c2.311,0 5.831,0.11 10.562,0.33l0.33,5.281c0,1.101 -0.11,5.171 -0.33,12.213l-0.33,0.66l-3.961,-0.33l-0.99,-0c-7.701,0.385 -11.552,0.825 -11.552,1.32c0.22,2.201 0.33,3.851 0.33,4.951l-0,14.523c0.165,0.66 0.825,0.99 1.98,0.99l17.824,0c0.22,5.832 0.33,10.453 0.33,13.863l0,1.321l-2.31,0.33l-16.174,-0l-0.99,0.66c0,2.31 -0.33,10.122 -0.99,23.435l0.33,0.66c3.466,-0.44 6.436,-0.66 8.912,-0.66l5.611,-0c1.87,-0 4.621,0.11 8.252,0.33c-0,0.495 0.22,2.145 0.66,4.951c-0,1.815 -0.22,5.336 -0.66,10.562c-4.511,-0.44 -9.572,-0.66 -15.183,-0.66l-11.553,-0c-3.466,-0 -9.187,0.11 -17.163,0.33c-0,-0.22 -0.11,-0.33 -0.33,-0.33c-0.22,-4.401 -0.33,-7.372 -0.33,-8.912l0.99,-14.193c-0.22,-11.222 -0.33,-17.714 -0.33,-19.474c0.44,-17.494 0.66,-28.276 0.66,-32.347l-0.33,-19.474c1.1,0 2.75,0.11 4.951,0.33Z" style="fill:rgb(255,0,0);"/>
        <path d="M284.192,77.565l3.302,-0.339l13.869,-0c0.22,7.013 0.33,11.651 0.33,13.913c-0.881,36.537 -1.321,57.691 -1.321,63.46l0.33,0.678c3.853,0 12.879,-0.226 27.078,-0.678l-0,3.054c-0,3.28 0.33,9.049 0.99,17.307l0,0.339c-0.22,0 -0.55,-0.113 -0.99,-0.339l-22.125,-1.018c-5.008,-0 -13.043,0.226 -24.105,0.679c1.101,-20.192 1.981,-52.544 2.642,-97.056Z" style="fill:rgb(255,0,0);"/>
        <path d="M218.042,76.515l50.023,0c0.216,3.736 0.324,6.566 0.324,8.49l0,3.736l-2.273,0.34l-15.592,-0l-0.649,0.339c0.433,11.151 0.649,18.622 0.649,22.414c-0.649,33.564 -0.974,54.167 -0.974,61.808l-12.993,-0.679l-0.325,-0c-0,-5.094 -0.325,-20.943 -0.975,-47.545c0,-8.999 0.434,-20.885 1.3,-35.658c-0.217,-0 -0.325,-0.113 -0.325,-0.34c-3.736,0.453 -7.742,0.68 -12.019,0.68l-5.522,-0c-0.433,-8.377 -0.649,-12.905 -0.649,-13.585Z" style="fill:rgb(255,0,0);"/>
        <path d="M154.166,79.462l50.83,-0c0.22,3.631 0.331,6.381 0.331,8.252l-0,3.63l-2.311,0.33l-15.843,0l-0.66,0.33c0.44,10.838 0.66,18.099 0.66,21.785c-0.66,32.621 -0.99,52.646 -0.99,60.072l-13.203,-0.66l-0.33,-0c-0,-4.951 -0.33,-20.354 -0.99,-46.209c-0,-8.747 0.44,-20.3 1.32,-34.658c-0.22,0 -0.33,-0.11 -0.33,-0.33c-3.796,0.44 -7.867,0.661 -12.213,0.661l-5.611,-0c-0.44,-8.142 -0.66,-12.543 -0.66,-13.203Z" style="fill:rgb(255,0,0);"/>
        <path d="M129.411,77.481l11.222,0c0.66,12.433 0.991,20.245 0.991,23.435l-1.321,40.268l0,14.193c0,3.466 0.11,9.187 0.33,17.164l-12.872,-0c0.88,-10.782 1.54,-30.146 1.98,-58.092c-0.22,-17.494 -0.33,-29.816 -0.33,-36.968Z" style="fill:rgb(255,0,0);"/>
        <path d="M56.377,60.804l4.143,-0.395l17.404,0c0.276,8.171 0.414,13.574 0.414,16.21c-1.105,42.568 -1.657,67.212 -1.657,73.933l0.414,0.791c4.834,0 16.161,-0.263 33.978,-0.791l0,3.559c0,3.822 0.415,10.543 1.243,20.163l0,0.396c-0.276,-0 -0.69,-0.132 -1.243,-0.396l-27.762,-1.186c-6.285,0 -16.368,0.264 -30.249,0.791c1.381,-23.524 2.486,-61.216 3.315,-113.075Z" style="fill:rgb(255,0,0);"/>
        <path d="M54.305,57.246c-0.898,0 -4.075,1.845 -9.531,5.535c0.277,3.954 0.415,6.853 0.415,8.698l-0,20.559c-2.486,42.963 -3.73,73.67 -3.73,92.121c0,0.527 0.277,0.79 0.829,0.79l3.315,0c14.917,0 35.774,0.132 62.57,0.396c5.248,-4.877 7.873,-7.381 7.873,-7.512c-1.105,-13.113 -1.658,-21.416 -1.658,-24.908l0,-4.745l-0.414,-0.79c-4.834,-0 -16.16,0.263 -33.978,0.79l1.657,-69.979l0,-1.977c0,-4.02 -0.138,-10.214 -0.414,-18.582l-0.829,-0.396l-26.105,0Zm2.072,3.558l4.143,-0.395l17.404,0c0.276,8.171 0.414,13.574 0.414,16.21c-1.105,42.568 -1.657,67.212 -1.657,73.933l0.414,0.791c4.834,0 16.161,-0.263 33.978,-0.791l0,3.559c0,3.822 0.415,10.543 1.243,20.163l0,0.396c-0.276,-0 -0.69,-0.132 -1.243,-0.396l-27.762,-1.186c-6.285,0 -16.368,0.264 -30.249,0.791c1.381,-23.524 2.486,-61.216 3.315,-113.075Z" style="fill-rule:nonzero;"/>
        <path d="M127.431,74.511c-0.22,0.055 -3.081,3.135 -8.582,9.242l0.33,1.98c0.22,13.863 0.33,22.555 0.33,26.075l-1.32,47.2c-0,3.521 0.22,10.672 0.66,21.454c0.22,0 0.33,0.11 0.33,0.33c10.562,0.441 16.503,0.661 17.824,0.661l6.271,-5.942c-0.22,-14.192 -0.33,-24.645 -0.33,-31.356l-0,-1.98c0.88,-23.6 1.32,-37.353 1.32,-41.259c0,-4.236 -0.33,-12.487 -0.99,-24.755c-0.165,-1.1 -0.495,-1.65 -0.99,-1.65l-14.853,-0Zm1.98,2.97l11.222,0c0.66,12.433 0.991,20.245 0.991,23.435l-1.321,40.268l0,14.193c0,3.466 0.11,9.187 0.33,17.164l-12.872,-0c0.88,-10.782 1.54,-30.146 1.98,-58.092c-0.22,-17.494 -0.33,-29.816 -0.33,-36.968Z" style="fill-rule:nonzero;"/>
        <path d="M207.307,76.491c-17.164,0.22 -30.586,0.33 -40.268,0.33l-15.183,0c-1.816,1.156 -4.346,3.026 -7.592,5.611c1.045,12.323 1.815,18.484 2.311,18.484l17.493,0c-0.66,11.057 -0.99,19.309 -0.99,24.755c-0,6.106 0.11,10.837 0.33,14.193c-0.22,6.657 -0.33,13.918 -0.33,21.785l-0,18.813c-0,0.441 0.22,0.661 0.66,0.661l3.961,-0c3.466,-0 9.187,0.11 17.163,0.33c2.366,-3.081 3.686,-4.621 3.961,-4.621c0,-5.721 0.33,-26.406 0.99,-62.053l0,-6.271c0,-1.871 -0.11,-4.621 -0.33,-8.252c2.201,0.22 3.851,0.33 4.951,0.33l9.242,0c1.32,-1.045 2.861,-3.356 4.621,-6.931c-0.22,-3.246 -0.44,-8.857 -0.66,-16.834c-0.22,0 -0.33,-0.11 -0.33,-0.33Zm-53.141,2.971l50.83,-0c0.22,3.631 0.331,6.381 0.331,8.252l-0,3.63l-2.311,0.33l-15.843,0l-0.66,0.33c0.44,10.838 0.66,18.099 0.66,21.785c-0.66,32.621 -0.99,52.646 -0.99,60.072l-13.203,-0.66l-0.33,-0c-0,-4.951 -0.33,-20.354 -0.99,-46.209c-0,-8.747 0.44,-20.3 1.32,-34.658c-0.22,0 -0.33,-0.11 -0.33,-0.33c-3.796,0.44 -7.867,0.661 -12.213,0.661l-5.611,-0c-0.44,-8.142 -0.66,-12.543 -0.66,-13.203Z" style="fill-rule:nonzero;"/>
        <path d="M270.338,73.459c-16.89,0.226 -30.1,0.34 -39.628,0.34l-14.942,-0c-1.786,1.188 -4.277,3.113 -7.471,5.773c1.029,12.678 1.787,19.018 2.274,19.018l17.216,-0c-0.65,11.376 -0.975,19.866 -0.975,25.47c0,6.282 0.108,11.15 0.325,14.603c-0.217,6.848 -0.325,14.32 -0.325,22.413l0,19.358c0,0.453 0.217,0.679 0.65,0.679l3.898,0c3.41,0 9.04,0.113 16.89,0.34c2.328,-3.17 3.628,-4.755 3.898,-4.755c0,-5.886 0.325,-27.168 0.975,-63.845l-0,-6.453c-0,-1.924 -0.109,-4.754 -0.325,-8.49c2.165,0.227 3.79,0.34 4.872,0.34l9.095,-0c1.3,-1.075 2.815,-3.453 4.548,-7.132c-0.217,-3.339 -0.433,-9.112 -0.65,-17.319c-0.216,-0 -0.325,-0.114 -0.325,-0.34Zm-52.296,3.056l50.023,0c0.216,3.736 0.324,6.566 0.324,8.49l0,3.736l-2.273,0.34l-15.592,-0l-0.649,0.339c0.433,11.151 0.649,18.622 0.649,22.414c-0.649,33.564 -0.974,54.167 -0.974,61.808l-12.993,-0.679l-0.325,-0c-0,-5.094 -0.325,-20.943 -0.975,-47.545c0,-8.999 0.434,-20.885 1.3,-35.658c-0.217,-0 -0.325,-0.113 -0.325,-0.34c-3.736,0.453 -7.742,0.68 -12.019,0.68l-5.522,-0c-0.433,-8.377 -0.649,-12.905 -0.649,-13.585Z" style="fill-rule:nonzero;"/>
        <path d="M282.541,74.511c-0.716,-0 -3.248,1.583 -7.595,4.751c0.22,3.393 0.33,5.882 0.33,7.466l-0,17.646c-1.981,36.877 -2.972,63.233 -2.972,79.07c-0,0.452 0.22,0.679 0.66,0.679l2.642,-0c11.888,-0 28.508,0.113 49.862,0.339c4.183,-4.185 6.274,-6.335 6.274,-6.448c-0.88,-11.255 -1.321,-18.382 -1.321,-21.379l0,-4.073l-0.33,-0.678c-3.852,-0 -12.878,0.226 -27.077,0.678l1.321,-60.065l-0,-1.697c-0,-3.45 -0.11,-8.767 -0.331,-15.95l-0.66,-0.339l-20.803,-0Zm1.651,3.054l3.302,-0.339l13.869,-0c0.22,7.013 0.33,11.651 0.33,13.913c-0.881,36.537 -1.321,57.691 -1.321,63.46l0.33,0.678c3.853,0 12.879,-0.226 27.078,-0.678l-0,3.054c-0,3.28 0.33,9.049 0.99,17.307l0,0.339c-0.22,0 -0.55,-0.113 -0.99,-0.339l-22.125,-1.018c-5.008,-0 -13.043,0.226 -24.105,0.679c1.101,-20.192 1.981,-52.544 2.642,-97.056Z" style="fill-rule:nonzero;"/>
        <path d="M373.001,74.181c-3.521,-0 -14.083,0.11 -31.687,0.33l-7.591,9.242c-0,1.045 0.11,3.575 0.33,7.591c-0.66,17.494 -0.99,29.596 -0.99,36.308l-0,20.794c-0,9.187 -0.441,19.969 -1.321,32.346c0.22,0 0.33,0.111 0.33,0.331c24.975,0.22 41.589,0.33 49.841,0.33c0.66,-0 2.31,-1.431 4.951,-4.291c2.42,-0 3.63,-4.841 3.63,-14.523c0,-2.531 -0.44,-5.391 -1.32,-8.582c-7.812,-0.22 -13.313,-0.44 -16.503,-0.66c-0.275,0.22 -2.256,0.44 -5.942,0.66c0.22,-1.045 0.441,-4.896 0.661,-11.552l13.202,-0c2.036,-1.816 4.346,-4.566 6.932,-8.252c-0.22,-1.87 -0.33,-3.411 -0.33,-4.621l-0,-0.33c-0,-3.191 -0.11,-8.142 -0.33,-14.853l-0.661,-0.33l-18.483,-0c-0.385,-0 -0.605,-0.22 -0.66,-0.66l-0,-8.582l10.232,0c3.08,-2.365 4.621,-3.906 4.621,-4.621c1.32,0 1.98,-5.611 1.98,-16.833c-0,-0.55 -0.11,-3.411 -0.33,-8.582c-0.22,-0 -0.33,-0.11 -0.33,-0.33c-5.776,-0.22 -9.187,-0.33 -10.232,-0.33Zm-24.425,3.3c7.481,-0.44 12.872,-0.66 16.173,-0.66l5.611,0c2.311,0 5.831,0.11 10.562,0.33l0.33,5.281c0,1.101 -0.11,5.171 -0.33,12.213l-0.33,0.66l-3.961,-0.33l-0.99,-0c-7.701,0.385 -11.552,0.825 -11.552,1.32c0.22,2.201 0.33,3.851 0.33,4.951l-0,14.523c0.165,0.66 0.825,0.99 1.98,0.99l17.824,0c0.22,5.832 0.33,10.453 0.33,13.863l0,1.321l-2.31,0.33l-16.174,-0l-0.99,0.66c0,2.31 -0.33,10.122 -0.99,23.435l0.33,0.66c3.466,-0.44 6.436,-0.66 8.912,-0.66l5.611,-0c1.87,-0 4.621,0.11 8.252,0.33c-0,0.495 0.22,2.145 0.66,4.951c-0,1.815 -0.22,5.336 -0.66,10.562c-4.511,-0.44 -9.572,-0.66 -15.183,-0.66l-11.553,-0c-3.466,-0 -9.187,0.11 -17.163,0.33c-0,-0.22 -0.11,-0.33 -0.33,-0.33c-0.22,-4.401 -0.33,-7.372 -0.33,-8.912l0.99,-14.193c-0.22,-11.222 -0.33,-17.714 -0.33,-19.474c0.44,-17.494 0.66,-28.276 0.66,-32.347l-0.33,-19.474c1.1,0 2.75,0.11 4.951,0.33Z" style="fill-rule:nonzero;"/>
        <path d="M479.764,53.212c-9.65,0.529 -14.806,0.793 -15.467,0.793c-4.032,0 -7.998,1.983 -11.897,5.949l-0,38.073c-0,5.023 -0.794,15.863 -2.38,32.52c0.264,4.032 0.397,7.734 0.397,11.105l-0,20.226c-0,4.032 0.132,10.245 0.396,18.64c0.265,-0 0.397,0.132 0.397,0.396c6.676,0.265 11.964,0.397 15.863,0.397l6.742,-0c2.38,-3.371 3.57,-5.751 3.57,-7.139l-0,-22.605l0.396,-0c4.825,11.765 9.452,20.093 13.881,24.985l20.623,-0c0.661,-0.199 1.983,-2.049 3.965,-5.553c-7.403,-17.45 -12.294,-29.347 -14.673,-35.693c-3.041,-11.897 -5.288,-18.507 -6.742,-19.829c8.791,-17.516 16.59,-31.926 23.398,-43.228l0,-0.397c-8.46,-6.015 -15.334,-11.567 -20.622,-16.657l-0.397,0c-7.733,13.616 -13.814,26.043 -18.243,37.28l-0.397,-0l0,-3.173c0,-10.774 0.529,-22.672 1.587,-35.693c-0.265,-0 -0.397,-0.132 -0.397,-0.397Zm-4.362,3.57c0.264,-0 0.661,-0.133 1.189,-0.397c-0.793,12.625 -1.189,22.011 -1.189,28.158l-0,9.121c-0,1.322 -0.132,3.305 -0.397,5.949c1.256,0.793 2.314,1.19 3.173,1.19c1.057,-2.446 1.983,-4.032 2.776,-4.759c5.023,-12.162 10.576,-23.928 16.657,-35.297c-0,-0.264 0.132,-0.396 0.396,-0.396c4.429,3.9 9.849,7.998 16.261,12.294c-5.817,9.452 -13.485,23.729 -23.003,42.832c0.199,0.595 0.992,1.917 2.38,3.966c4.164,15.599 10.113,31.727 17.846,48.384l-15.07,-0l-7.932,-15.071c-6.61,-17.516 -10.179,-26.373 -10.708,-26.571l-1.983,-0c-1.057,-0 -1.586,7.271 -1.586,21.812l-0,24.192c-2.974,0 -7.469,0.132 -13.484,0.397l-0,-34.9l1.983,-61.472l-0,-1.586l0.396,-2.379c-0.264,-0.463 -0.396,-1.124 -0.396,-1.983l-0,-12.691c5.354,-0.529 9.584,-0.793 12.691,-0.793Z" style="fill-rule:nonzero;"/>
        <path d="M529.549,70.16c-0.22,0.055 -3.08,3.135 -8.581,9.241l0.33,1.981c0.22,13.863 0.33,22.554 0.33,26.075l-1.321,47.2c0,3.521 0.22,10.672 0.661,21.454c0.22,0 0.33,0.11 0.33,0.33c10.562,0.44 16.503,0.66 17.823,0.66l6.272,-5.941c-0.221,-14.193 -0.331,-24.645 -0.331,-31.356l0,-1.981c0.881,-23.599 1.321,-37.352 1.321,-41.258c-0,-4.236 -0.33,-12.488 -0.99,-24.755c-0.166,-1.1 -0.496,-1.65 -0.991,-1.65l-14.853,-0Zm1.981,2.97l11.222,0c0.66,12.433 0.99,20.244 0.99,23.435l-1.32,40.268l-0,14.193c-0,3.466 0.11,9.187 0.33,17.164l-12.873,-0c0.881,-10.783 1.541,-30.147 1.981,-58.092c-0.22,-17.494 -0.33,-29.816 -0.33,-36.968Z" style="fill-rule:nonzero;"/>
        <path d="M616.347,70.228c-10.609,0.452 -16.703,0.677 -18.283,0.677c-0.734,0 -3.329,2.258 -7.787,6.772c-0,4.063 0.225,13.656 0.677,28.78c-0.226,2.934 -0.339,5.304 -0.339,7.11l-0.677,-0c-0,-0.565 -0.339,-1.58 -1.016,-3.047c-4.458,-12.415 -10.214,-25.62 -17.268,-39.615c-7.279,-0.225 -12.245,-0.338 -14.897,-0.338c-0.847,0.451 -3.555,2.483 -8.126,6.094c0.451,8.973 1.016,35.946 1.693,80.922l-0,21.33c-0,0.452 0.226,0.677 0.677,0.677l12.866,0c1.129,0 2.822,0.113 5.079,0.339l6.433,-7.11c0.677,-17.042 1.016,-29.344 1.016,-36.906l-0,-0.677c2.652,4.402 4.796,8.69 6.433,12.866c5.643,13.205 10.947,23.814 15.913,31.827l13.543,-0l5.756,-6.095c-0.451,-51.577 -0.903,-80.921 -1.354,-88.031c0.451,-4.684 0.677,-7.844 0.677,-9.48c0,-2.822 -0.338,-4.853 -1.016,-6.095Zm-16.929,3.386c4.063,0 9.029,-0.226 14.898,-0.677c-0,0.564 0.113,1.467 0.338,2.709c0,0.846 -0.225,4.006 -0.677,9.48c0.452,14.446 0.903,42.774 1.355,84.984l-0,0.339c-1.298,-0 -4.346,-0.226 -9.142,-0.678c-2.709,0 -5.756,-3.611 -9.142,-10.834c-4.514,-12.358 -11.173,-27.482 -19.976,-45.37c-0.339,0.226 -1.016,0.338 -2.032,0.338c-0.62,4.176 -1.41,22.911 -2.37,56.205c-6.207,-0.226 -10.496,-0.339 -12.866,-0.339c-0.226,0 -0.451,-6.433 -0.677,-19.299c0.226,-9.649 0.564,-17.888 1.016,-24.716c-0,-14.277 -0.452,-31.771 -1.355,-52.481c4.853,0.226 8.465,0.339 10.835,0.339l0.677,0c6.377,13.826 10.891,24.322 13.543,31.488c7.901,19.92 12.641,30.981 14.221,33.181l1.354,0l1.016,-0.677c-0.226,-28.497 -0.564,-49.715 -1.016,-63.653l0,-0.339Z" style="fill-rule:nonzero;"/>
        <path d="M650.387,73.529c-6.326,-0 -12.928,3.411 -19.804,10.232c-8.362,5.336 -12.543,21.069 -12.543,47.2c0,10.727 1.211,20.189 3.631,28.385c4.181,11.883 12.653,17.824 25.415,17.824l0.33,0c8.967,0 17.549,-5.061 25.746,-15.183c2.64,-2.421 3.96,-9.132 3.96,-20.134l0,-19.474l-0.33,-0.66c-4.016,-0 -11.497,0.11 -22.444,0.33l-7.262,6.601c0,1.21 0.22,6.161 0.66,14.853l0.33,0.66c1.046,0 3.576,0.11 7.592,0.33c0.44,3.081 0.77,6.602 0.99,10.563c-2.31,0.66 -3.961,0.99 -4.951,0.99c-7.206,-0 -11.387,-8.912 -12.542,-26.736c0.22,-3.851 0.55,-7.591 0.99,-11.222c1.87,-12.157 4.511,-19.859 7.921,-23.105c0.441,0.22 0.771,0.33 0.991,0.33c3.795,0 5.996,3.521 6.601,10.563l-0,2.97c-0,0.825 5.281,1.485 15.843,1.981c3.301,-2.861 4.951,-7.592 4.951,-14.193l0,-4.291c0,-2.806 -0.66,-5.116 -1.98,-6.932c-5.281,-7.921 -13.313,-11.882 -24.095,-11.882Zm-24.095,54.791c-0,-10.617 0.55,-18.869 1.65,-24.755c3.851,-18.044 11.003,-27.065 21.455,-27.065l2.64,-0c1.486,-0 2.806,0.11 3.961,0.33c11.882,2.75 17.824,8.141 17.824,16.173l-0,1.65c-0,3.081 -0.22,5.831 -0.66,8.252c-4.071,-0.22 -7.042,-0.33 -8.912,-0.33l-0,-1.32c-1.706,-8.142 -5.116,-12.213 -10.232,-12.213c-3.631,0 -7.152,2.531 -10.563,7.592c-4.62,10.397 -6.931,21.069 -6.931,32.016c0.22,5.666 0.55,9.297 0.99,10.892c2.586,12.763 7.097,19.144 13.533,19.144l0.99,0c7.427,0 12.048,-4.951 13.863,-14.853c0,-2.035 -0.11,-4.896 -0.33,-8.582c-0,-0.385 -0.22,-0.605 -0.66,-0.66l-7.922,0c0,-2.475 -0.11,-5.666 -0.33,-9.572l0,-0.33c3.631,0 9.572,-0.11 17.824,-0.33l-0,14.853c-0,6.217 -0.33,11.718 -0.99,16.504c-4.896,9.902 -12.268,14.853 -22.115,14.853c-7.151,-0 -12.542,-1.871 -16.173,-5.611c-5.941,-3.301 -8.912,-15.294 -8.912,-35.978l-0,-0.66Z" style="fill-rule:nonzero;"/>
        <path d="M793.414,53.212c-20.947,0.269 -37.329,0.403 -49.145,0.403l-18.53,0c-2.216,1.41 -5.304,3.693 -9.265,6.848c1.275,15.039 2.215,22.558 2.82,22.558l21.349,0c-0.805,13.495 -1.208,23.566 -1.208,30.212c-0,7.453 0.134,13.226 0.403,17.322c-0.269,8.123 -0.403,16.986 -0.403,26.586l-0,22.961c-0,0.537 0.268,0.806 0.806,0.806l4.833,-0c4.23,-0 11.212,0.134 20.947,0.403c2.887,-3.76 4.499,-5.64 4.834,-5.64c0,-6.982 0.403,-32.226 1.209,-75.731l-0,-7.654c-0,-2.282 -0.134,-5.639 -0.403,-10.07c2.685,0.268 4.7,0.403 6.042,0.403l11.279,-0c1.612,-1.276 3.492,-4.096 5.64,-8.46c-0.269,-3.961 -0.537,-10.809 -0.806,-20.544c-0.268,0 -0.402,-0.134 -0.402,-0.403Zm-64.855,3.626l62.035,-0c0.268,4.431 0.403,7.788 0.403,10.07l-0,4.431l-2.82,0.403l-19.336,0l-0.805,0.403c0.537,13.226 0.805,22.088 0.805,26.587c-0.805,39.812 -1.208,64.25 -1.208,73.314l-16.113,-0.806l-0.403,0c-0,-6.042 -0.403,-24.841 -1.209,-56.395c0,-10.675 0.537,-24.774 1.612,-42.297c-0.269,-0 -0.403,-0.134 -0.403,-0.403c-4.633,0.537 -9.601,0.806 -14.905,0.806l-6.848,-0c-0.537,-9.937 -0.805,-15.308 -0.805,-16.113Z" style="fill-rule:nonzero;"/>
        <path d="M825.989,69.622c-6.876,-0 -13.917,1.87 -21.124,5.611c-4.071,0.825 -9.902,5.556 -17.493,14.193l-0,10.232c-0,13.038 0.33,22.94 0.99,29.706c-0.44,11.057 -0.88,27.891 -1.321,50.5c0.221,0 0.331,0.11 0.331,0.33c5.556,0.22 9.626,0.33 12.212,0.33l1.32,0l2.311,0.33l7.591,-6.271c-0.22,-11.222 -0.33,-19.474 -0.33,-24.755l0,-10.232l0.33,0c0,0.605 0.33,1.155 0.991,1.65c4.785,8.967 11.607,20.52 20.464,34.657c7.976,0.221 13.697,0.331 17.163,0.331l2.641,-0l3.961,0.33l4.951,-6.932l-8.252,-15.843c-5.061,-11.497 -10.452,-20.849 -16.173,-28.056c9.461,-10.232 14.192,-19.034 14.192,-26.405c0,-3.741 -0.44,-7.262 -1.32,-10.562c-4.181,-12.763 -11.992,-19.144 -23.435,-19.144Zm-30.036,14.853l1.981,-2.311c10.287,-6.601 19.419,-9.902 27.395,-9.902c3.301,0.22 5.941,0.66 7.922,1.321c9.902,4.18 14.853,12.762 14.853,25.745c-0,6.766 -4.951,15.458 -14.853,26.075c4.786,6.767 8.087,11.718 9.902,14.853c4.731,10.287 9.242,19.199 13.533,26.736l-0,0.33l-19.804,-0c-5.722,-11.223 -13.203,-23.545 -22.445,-36.968c-1.87,-4.181 -3.851,-6.271 -5.941,-6.271c-0,0.22 -0.11,0.33 -0.33,0.33c-0.22,11.992 -0.33,21.564 -0.33,28.716l-0,5.611c-0,3.246 0.11,7.647 0.33,13.203c-6.327,-0.22 -10.397,-0.33 -12.213,-0.33l-0.33,-0c0.44,-21.235 0.99,-40.159 1.651,-56.772c-0.661,-7.316 -1.101,-17.439 -1.321,-30.366Zm27.396,2.64l-1.65,0c-8.582,2.916 -12.873,7.537 -12.873,13.863c-0,0.77 0.11,1.761 0.33,2.971c2.035,4.401 5.996,6.601 11.882,6.601l0.33,0c5.777,0 9.187,-4.401 10.233,-13.203l-0,-1.98c-0,-1.54 -0.22,-2.751 -0.661,-3.631c-1.43,-3.08 -3.96,-4.621 -7.591,-4.621Zm-11.883,14.523c0,-4.015 1.321,-6.326 3.961,-6.931l2.641,-0c3.741,-0 5.611,1.65 5.611,4.951l-0,1.98c-0,1.816 -0.88,3.906 -2.641,6.272c-6.381,-0.716 -9.572,-2.806 -9.572,-6.272Z" style="fill-rule:nonzero;"/>
        <path d="M897.439,70.228c-3.77,1.484 -7.063,3.425 -9.877,5.823c-0.744,0.342 -2.125,5.708 -4.143,16.097c-6.16,25.288 -10.515,45.152 -13.064,59.594c-2.814,9.704 -4.939,19.066 -6.372,28.085c-0,0.457 0.212,0.685 0.637,0.685l23.26,0c0.266,0 1.965,-1.941 5.099,-5.822c1.487,-8.848 3.186,-17.182 5.098,-25.003l4.461,0c1.487,0 3.823,0.115 7.01,0.343c2.549,12.387 5.31,22.548 8.284,30.482c11.79,0.228 19.968,0.342 24.535,0.342l0.319,0c2.549,-3.881 4.249,-5.936 5.098,-6.164c-10.727,-34.307 -17.843,-59.766 -21.348,-76.377c-2.39,-11.074 -5.789,-20.322 -10.197,-27.742c-9.612,-0.229 -15.879,-0.343 -18.8,-0.343Zm1.275,2.74c7.594,0.229 12.905,0.343 15.932,0.343l6.373,13.7c5.098,24.088 12.851,52.287 23.26,84.596c-7.7,0.228 -13.223,0.343 -16.569,0.343l-3.186,-0c-1.912,-13.244 -5.205,-24.318 -9.878,-33.223c-10.196,-0.456 -15.932,-0.685 -17.207,-0.685c-0.743,0 -1.168,2.398 -1.274,7.193c-2.124,9.704 -3.824,18.495 -5.098,26.372c-6.479,0.228 -11.259,0.343 -14.339,0.343l-0.319,-0c1.487,-4.51 3.399,-15.127 5.736,-31.853c5.735,-20.721 11.258,-43.097 16.569,-67.129Zm7.647,18.837c-2.867,5.138 -5.841,14.499 -8.922,28.085c5.152,1.142 9.082,1.713 11.79,1.713c4.249,-0.685 6.373,-2.398 6.373,-5.138l-0,-2.055c-0,-7.991 -3.08,-15.526 -9.241,-22.605Zm-5.416,26.03l-0.319,0c2.018,-8.448 3.292,-12.786 3.824,-13.015c1.274,2.969 1.911,6.051 1.911,9.248l0,4.452c-0.743,0 -2.549,-0.228 -5.416,-0.685Z" style="fill-rule:nonzero;"/>
        <path d="M983.341,69.476c-5.611,-0 -13.533,2.31 -23.765,6.931c-9.242,7.042 -13.862,15.293 -13.862,24.755c-0,8.967 4.841,17.219 14.523,24.755c13.862,6.987 20.794,13.038 20.794,18.154c-0,2.806 -0.99,5.336 -2.971,7.591c-3.025,0 -5.446,-5.061 -7.261,-15.183l-12.873,0.661c-2.09,-0 -5.501,1.54 -10.232,4.62c0.22,3.796 0.77,8.527 1.65,14.193c4.896,15.183 13.148,22.775 24.755,22.775l0.991,0c7.646,0 14.798,-3.961 21.454,-11.882c5.501,-7.042 8.252,-14.193 8.252,-21.455c-0,-10.067 -3.301,-18.209 -9.902,-24.425c-14.743,-11.277 -22.115,-18.979 -22.115,-23.105l0,-0.33c0,-1.65 0.44,-2.53 1.32,-2.64l1.321,-0c4.621,1.705 6.931,5.666 6.931,11.882c0,1.101 3.741,1.651 11.222,1.651l5.281,-4.951c1.101,-0 1.981,-4.181 2.641,-12.543c-0,-1.87 -0.44,-4.731 -1.32,-8.582c-2.971,-8.581 -8.252,-12.872 -15.844,-12.872l-0.99,-0Zm-27.065,28.385c-0,-4.29 1.87,-9.351 5.611,-15.183c6.601,-7.041 13.753,-10.562 21.454,-10.562c2.971,0 5.611,0.66 7.922,1.981c5.061,3.905 7.591,9.407 7.591,16.503c0,0.935 -0.33,3.906 -0.99,8.912l0,0.33l-5.941,-0c-2.861,-8.802 -6.381,-13.203 -10.562,-13.203l-2.311,0.33c-5.941,2.036 -8.911,5.666 -8.911,10.892l-0,0.661c-0,3.905 5.281,10.177 15.843,18.813c10.562,6.877 15.843,15.679 15.843,26.406l-0,2.97c-0,2.146 -0.66,5.227 -1.98,9.242c-2.696,9.022 -9.517,13.533 -20.465,13.533l-2.64,0c-5.171,0 -9.902,-2.64 -14.193,-7.922c-2.641,-1.98 -3.961,-8.691 -3.961,-20.134l0,-1.65c3.631,-0.22 6.381,-0.33 8.252,-0.33l1.98,-0l0,0.99c1.926,9.462 5.336,14.193 10.232,14.193c1.211,-0.22 2.091,-0.33 2.641,-0.33c6.821,-2.475 10.232,-6.986 10.232,-13.533c-0,-7.316 -6.711,-13.588 -20.134,-18.814c-10.342,-7.206 -15.513,-14.358 -15.513,-21.454l-0,-2.641Z" style="fill-rule:nonzero;"/>
        <path d="M1015.12,74.573c-1.375,1.375 -4.016,3.796 -7.922,7.261c0,5.942 0.22,20.795 0.661,44.559c-0.661,16.779 -0.991,27.671 -0.991,32.677c0,5.611 0.991,12.653 2.971,21.124c10.562,0.44 16.503,0.66 17.824,0.66l6.271,-5.941c-0,-1.155 0.11,-6.436 0.33,-15.843c-0,-1.65 -0.33,-8.582 -0.99,-20.794l8.912,-0l-0,6.601l-1.321,35.317l0.66,0.33l16.174,0c1.43,0 3.63,0.11 6.601,0.33c2.971,-4.125 4.731,-6.216 5.281,-6.271c0,-0.385 -0.11,-2.365 -0.33,-5.941c0,-16.998 0.11,-41.643 0.33,-73.935c-0.22,-7.812 -0.33,-13.973 -0.33,-18.484c-0.22,0 -0.33,-0.11 -0.33,-0.33c-9.132,0.22 -15.953,0.33 -20.464,0.33l-0.33,0c-3.026,2.091 -5.116,3.851 -6.272,5.281l0,1.651c0,5.281 0.11,13.532 0.331,24.755l-9.572,-0l-0,-6.932c-0,-8.527 -0.22,-16.998 -0.661,-25.415c-0.385,0 -0.605,-0.22 -0.66,-0.66c-3.41,-0 -8.801,-0.11 -16.173,-0.33Zm2.31,2.64c2.971,0.22 5.172,0.33 6.602,0.33l5.281,0c0.44,7.537 0.66,15.789 0.66,24.755l0,7.592c0,0.44 0.22,0.66 0.66,0.66l11.553,0c1.87,0 4.841,0.11 8.911,0.33c0,-0.22 0.11,-0.33 0.33,-0.33l-1.32,-31.356l0.66,-0.33l5.941,-0c2.201,-0 5.502,-0.11 9.903,-0.33c-0,4.786 0.11,10.287 0.33,16.503c-0.22,30.201 -0.33,55.726 -0.33,76.576c-0,0.44 -0.771,0.66 -2.311,0.66l-13.863,-0c0,-6.106 0.22,-20.079 0.66,-41.919c0,-0.385 -0.22,-0.605 -0.66,-0.66l-11.222,0c-1.87,0 -4.841,-0.11 -8.912,-0.33c0,0.22 -0.11,0.33 -0.33,0.33c1.1,18.264 1.65,28.386 1.65,30.366c-0.22,4.401 -0.33,8.362 -0.33,11.883l-14.193,-0c-0.22,-4.731 -0.33,-8.252 -0.33,-10.562l0,-6.272c0,-11.827 0.44,-27.67 1.321,-47.529c-0,-4.016 -0.22,-14.138 -0.661,-30.367Z" style="fill-rule:nonzero;"/>
        <path d="M1081.35,70.164l-5.575,4.455c-1.446,-0 -2.169,2.399 -2.169,7.196l1.859,33.242l-1.239,64.769c0.206,0 0.31,0.115 0.31,0.343c7.021,0.229 11.77,0.343 14.248,0.343c0.516,-0 1.342,0.114 2.478,0.342c4.388,-3.369 7.073,-5.768 8.053,-7.196l0,-47.292c2.014,2.97 3.253,4.455 3.717,4.455c2.995,-0 6.299,-2.399 9.912,-7.197l0,10.967c0,5.54 0.104,11.137 0.31,16.792c-0.206,2.399 -0.31,4.34 -0.31,5.825c0.207,8.454 0.517,15.764 0.93,21.933c-0,0.685 2.374,1.028 7.124,1.028l5.575,0l3.098,0.343c1.548,-1.771 3.304,-3.941 5.265,-6.511l0,-102.809c0,-0.4 -0.206,-0.629 -0.619,-0.686l-12.7,0c-0.722,0 -3.304,0.8 -7.743,2.399c-0.878,0.857 -3.459,7.14 -7.744,18.849l-0.31,-0c-4.904,-14.279 -7.589,-21.476 -8.053,-21.59l-16.417,-0Zm2.478,3.084l1.549,-0.343l11.151,0c1.135,3.884 1.858,5.826 2.168,5.826c4.182,14.165 7.795,22.504 10.841,25.017l0.31,-0l8.983,-20.562c2.426,-6.625 3.768,-9.938 4.026,-9.938l9.602,-0l0,98.354c-4.13,-0.457 -7.846,-0.686 -11.15,-0.686l-0,-8.224c0.413,-26.388 0.619,-40.553 0.619,-42.495c0,-1.028 0.103,-2.513 0.31,-4.455c-0.878,-5.94 -1.601,-8.91 -2.168,-8.91l-1.859,0c-3.769,8.853 -6.866,14.679 -9.292,17.478c-2.478,-5.027 -5.782,-10.852 -9.912,-17.478l-0.62,0c-1.032,0.514 -1.549,1.657 -1.549,3.427l0,60.657l-0.309,0.686l-13.939,-0.686c0.413,-29.414 1.033,-49.748 1.859,-61c-0,-10.223 -0.207,-22.446 -0.62,-36.668Z" style="fill-rule:nonzero;"/>
        <path d="M1173.13,78.61c-4.495,0 -8.215,1.059 -11.16,3.176c-6.82,4.499 -12.09,9.686 -15.81,15.561c-6.2,12.914 -9.3,29.639 -9.3,50.175c0,7.251 1.86,13.285 5.58,18.101c5.994,10.798 13.537,16.196 22.63,16.196c10.282,0 17.722,-2.646 22.32,-7.939c7.647,-9.897 11.47,-23.87 11.47,-41.919l0,-5.081c0,-6.086 -0.516,-11.803 -1.55,-17.148c-4.598,-20.748 -12.555,-31.122 -23.87,-31.122l-0.31,0Zm-27.9,55.257c0,-7.146 1.55,-15.826 4.65,-26.041c4.34,-17.784 12.09,-26.675 23.25,-26.675c1.602,-0 3.359,0.317 5.27,0.952c11.625,6.14 17.619,21.489 17.98,46.047l0,2.541c0,12.385 -1.86,23.288 -5.58,32.709c-3.41,6.563 -9.403,9.845 -17.98,9.845l-1.86,-0c-3.771,-0 -7.801,-1.059 -12.09,-3.176c-9.093,-6.669 -13.64,-17.678 -13.64,-33.027l0,-3.175Zm25.42,-39.696c-0.361,0.212 -0.775,0.317 -1.24,0.317c-9.506,6.775 -14.26,18.843 -14.26,36.203c0,7.092 0.827,13.444 2.48,19.054c3.875,6.351 8.422,9.527 13.64,9.527l0.93,0c1.654,0 3.617,-0.529 5.89,-1.588c4.34,-3.493 6.51,-12.385 6.51,-26.675c0,-0.371 -0.31,-4.605 -0.93,-12.703c-1.653,-16.09 -5.993,-24.135 -13.02,-24.135Zm-12.71,33.979c0,-10.479 1.964,-18.313 5.89,-23.499l0.93,-0c3.049,-0 5.322,1.058 6.82,3.175c3.1,7.834 4.65,16.196 4.65,25.088l0,12.068c0,5.822 -2.17,9.632 -6.51,11.432c-1.498,-0 -3.565,-1.059 -6.2,-3.176c-3.72,-2.699 -5.58,-8.945 -5.58,-18.736l0,-6.352Z" style="fill-rule:nonzero;"/>
        <path d="M1209.53,76.883c-5.721,3.906 -8.582,6.987 -8.582,9.242l-0,3.301c-0,6.601 0.22,18.814 0.66,36.637c0,9.297 -0.22,18.099 -0.66,26.406c0.44,3.465 0.99,6.656 1.65,9.572c4.346,12.542 12.928,18.813 25.746,18.813c5.501,0 10.342,-1.32 14.522,-3.96c8.802,-4.016 13.203,-16.119 13.203,-36.308c0,-6.106 -0.33,-16.118 -0.99,-30.036c-0,-4.291 0.33,-14.193 0.99,-29.706c0,-0.385 -0.22,-0.605 -0.66,-0.66l-18.814,-0c-4.181,3.246 -6.381,5.116 -6.601,5.611l-0,13.533c-0,8.692 0.22,19.804 0.66,33.337c-0.495,16.063 -1.375,24.095 -2.641,24.095c-4.18,-1.431 -6.271,-3.411 -6.271,-5.942l0,-4.291c0,-13.697 -0.33,-27.23 -0.99,-40.598c-0,-7.096 0.77,-15.348 2.31,-24.755c-0.22,-2.42 -0.44,-3.741 -0.66,-3.961c-6.491,-0.22 -10.782,-0.33 -12.872,-0.33Zm1.98,2.641c3.631,0.22 6.381,0.33 8.252,0.33l0.66,0.33c-1.54,9.462 -2.311,18.154 -2.311,26.075c0.661,15.403 0.991,30.146 0.991,44.229c-0,4.896 3.3,7.867 9.902,8.912l0.33,0c2.97,0 5.281,-1.87 6.931,-5.611c1.981,-0 2.971,-14.193 2.971,-42.579l-0,-28.055l1.65,-0.331l12.543,0c-0.661,10.563 -0.991,19.695 -0.991,27.396c0.661,16.613 0.991,26.515 0.991,29.706c-0,13.313 -1.981,23.215 -5.942,29.706c-1.815,3.301 -6.766,4.951 -14.853,4.951c-8.031,0 -14.413,-4.181 -19.144,-12.542c-1.76,-0 -2.64,-14.633 -2.64,-43.899c-0,-8.252 0.22,-21.125 0.66,-38.618Z" style="fill-rule:nonzero;"/>
        <path d="M1321.11,78.807c-17.164,0.22 -30.586,0.33 -40.268,0.33l-15.183,0c-1.816,1.155 -4.346,3.026 -7.592,5.611c1.045,12.323 1.815,18.484 2.31,18.484l17.494,0c-0.66,11.057 -0.99,19.309 -0.99,24.755c-0,6.106 0.11,10.837 0.33,14.193c-0.22,6.656 -0.33,13.918 -0.33,21.785l-0,18.813c-0,0.44 0.22,0.661 0.66,0.661l3.961,-0c3.465,-0 9.187,0.11 17.163,0.33c2.366,-3.081 3.686,-4.621 3.961,-4.621c0,-5.722 0.33,-26.406 0.99,-62.053l0,-6.271c0,-1.871 -0.11,-4.621 -0.33,-8.252c2.201,0.22 3.851,0.33 4.951,0.33l9.242,0c1.32,-1.045 2.861,-3.356 4.621,-6.931c-0.22,-3.246 -0.44,-8.857 -0.66,-16.834c-0.22,0 -0.33,-0.11 -0.33,-0.33Zm-53.141,2.971l50.83,-0c0.22,3.631 0.33,6.381 0.33,8.251l0,3.631l-2.31,0.33l-15.843,0l-0.66,0.33c0.44,10.838 0.66,18.099 0.66,21.785c-0.66,32.621 -0.99,52.646 -0.99,60.072l-13.203,-0.66l-0.33,-0c-0,-4.951 -0.33,-20.354 -0.99,-46.21c-0,-8.746 0.44,-20.299 1.32,-34.657c-0.22,0 -0.33,-0.11 -0.33,-0.33c-3.796,0.44 -7.867,0.66 -12.213,0.66l-5.611,0c-0.44,-8.141 -0.66,-12.542 -0.66,-13.202Z" style="fill-rule:nonzero;"/>
        <path d="M1319.09,78.771c-17.163,0.22 -30.586,0.33 -40.268,0.33l-15.183,0c-1.816,1.155 -4.346,3.026 -7.592,5.611c1.045,12.323 1.816,18.484 2.311,18.484l17.493,0c-0.66,11.057 -0.99,19.309 -0.99,24.755c0,6.106 0.11,10.837 0.33,14.193c-0.22,6.656 -0.33,13.918 -0.33,21.784l0,18.814c0,0.44 0.22,0.66 0.66,0.66l3.961,0c3.466,0 9.187,0.11 17.163,0.33c2.366,-3.08 3.686,-4.62 3.961,-4.62c0,-5.722 0.33,-26.406 0.99,-62.053l0,-6.271c0,-1.871 -0.11,-4.621 -0.33,-8.252c2.201,0.22 3.851,0.33 4.951,0.33l9.242,-0c1.321,-1.045 2.861,-3.356 4.621,-6.931c-0.22,-3.246 -0.44,-8.857 -0.66,-16.834c-0.22,0 -0.33,-0.11 -0.33,-0.33Zm-53.141,2.971l50.831,-0c0.22,3.63 0.33,6.381 0.33,8.251l-0,3.631l-2.311,0.33l-15.843,0l-0.66,0.33c0.44,10.837 0.66,18.099 0.66,21.785c-0.66,32.621 -0.99,52.645 -0.99,60.072l-13.203,-0.66l-0.33,-0c-0,-4.951 -0.33,-20.354 -0.99,-46.21c-0,-8.746 0.44,-20.299 1.32,-34.657c-0.22,0 -0.33,-0.11 -0.33,-0.33c-3.796,0.44 -7.867,0.66 -12.213,0.66l-5.611,0c-0.44,-8.141 -0.66,-12.542 -0.66,-13.202Z" style="fill-rule:nonzero;"/>
        <path d="M1328.35,74.573c-1.375,1.375 -4.016,3.796 -7.922,7.261c0,5.942 0.22,20.795 0.66,44.559c-0.66,16.779 -0.99,27.671 -0.99,32.677c0,5.611 0.99,12.653 2.971,21.124c10.562,0.44 16.503,0.66 17.823,0.66l6.272,-5.941c-0,-1.155 0.11,-6.436 0.33,-15.843c-0,-1.65 -0.33,-8.582 -0.99,-20.794l8.911,-0l0,6.601l-1.32,35.317l0.66,0.33l16.174,0c1.43,0 3.63,0.11 6.601,0.33c2.971,-4.125 4.731,-6.216 5.281,-6.271c0,-0.385 -0.11,-2.365 -0.33,-5.941c-0,-16.998 0.11,-41.643 0.33,-73.935c-0.22,-7.812 -0.33,-13.973 -0.33,-18.484c-0.22,0 -0.33,-0.11 -0.33,-0.33c-9.132,0.22 -15.953,0.33 -20.464,0.33l-0.33,0c-3.026,2.091 -5.116,3.851 -6.272,5.281l0,1.651c0,5.281 0.11,13.532 0.33,24.755l-9.572,-0l0,-6.932c0,-8.527 -0.22,-16.998 -0.66,-25.415c-0.385,0 -0.605,-0.22 -0.66,-0.66c-3.41,-0 -8.802,-0.11 -16.173,-0.33Zm2.31,2.64c2.971,0.22 5.171,0.33 6.602,0.33l5.281,0c0.44,7.537 0.66,15.789 0.66,24.755l-0,7.592c-0,0.44 0.22,0.66 0.66,0.66l11.552,0c1.871,0 4.841,0.11 8.912,0.33c0,-0.22 0.11,-0.33 0.33,-0.33l-1.32,-31.356l0.66,-0.33l5.941,-0c2.201,-0 5.502,-0.11 9.902,-0.33c0,4.786 0.11,10.287 0.33,16.503c-0.22,30.201 -0.33,55.726 -0.33,76.576c0,0.44 -0.77,0.66 -2.31,0.66l-13.863,-0c0,-6.106 0.22,-20.079 0.66,-41.919c0,-0.385 -0.22,-0.605 -0.66,-0.66l-11.222,0c-1.871,0 -4.841,-0.11 -8.912,-0.33c0,0.22 -0.11,0.33 -0.33,0.33c1.1,18.264 1.65,28.386 1.65,30.366c-0.22,4.401 -0.33,8.362 -0.33,11.883l-14.193,-0c-0.22,-4.731 -0.33,-8.252 -0.33,-10.562l0,-6.272c0,-11.827 0.44,-27.67 1.321,-47.529c-0,-4.016 -0.221,-14.138 -0.661,-30.367Z" style="fill-rule:nonzero;"/>
    </g>
</svg>
